HIERARCHY
ROOT Hips
{
	OFFSET 0.000000 0.000000 0.000000 
	CHANNELS 6 Xposition Yposition Zposition Yrotation Zrotation Xrotation 
	JOINT Lumbar
	{
		OFFSET 0.000000 0.000000 0.000000 
		CHANNELS 3 Zrotation Xrotation Yrotation
		JOINT Neck
		{
			OFFSET 0.000000 0.445665 0.000000 
			CHANNELS 3 Zrotation Xrotation Yrotation
			End Site
			{
				OFFSET 0.000000 0.227535 0.000000 
			}
		}
		JOINT RightShoulder
		{
			OFFSET 0.019635 0.377685 0.194865 
			CHANNELS 3 Zrotation Xrotation Yrotation
			JOINT RightElbow
			{
				OFFSET 0.000000 -0.243375 0.000000 
				CHANNELS 2 Zrotation Yrotation
				JOINT RightWrist
				{
					OFFSET 0.000000 -0.264825 0.000000 
					CHANNELS 2 Zrotation Xrotation
					End Site
					{
						OFFSET 0.006600 -0.176220 0.000990 
					}
				}
			}
		}
		JOINT LeftShoulder
		{
			OFFSET 0.019635 0.377685 -0.194865 
			CHANNELS 3 Zrotation Xrotation Yrotation
			JOINT LeftElbow
			{
				OFFSET 0.000000 -0.243375 0.000000 
				CHANNELS 2 Zrotation Yrotation
				JOINT LeftWrist
				{
					OFFSET 0.000000 -0.264825 0.000000 
					CHANNELS 2 Zrotation Xrotation
					End Site
					{
						OFFSET 0.006600 -0.176220 -0.000990 
					}
				}
			}
		}
	}
	JOINT RightHip
	{
		OFFSET 0.052140 -0.069960 0.075570 
		CHANNELS 3 Zrotation Xrotation Yrotation
		JOINT RightKnee
		{
			OFFSET 0.000000 -0.402270 0.000000 
			CHANNELS 1 Zrotation
			JOINT RightAnkle
			{
				OFFSET 0.000000 -0.404085 0.000000 
				CHANNELS 3 Zrotation Xrotation Yrotation
				End Site
				{
					OFFSET 0.204105 -0.089430 0.008415 
				}
			}
		}
	}
	JOINT LeftHip
	{
		OFFSET 0.052140 -0.069960 -0.075570 
		CHANNELS 3 Zrotation Xrotation Yrotation
		JOINT LeftKnee
		{
			OFFSET 0.000000 -0.402270 0.000000 
			CHANNELS 1 Zrotation
			JOINT LeftAnkle
			{
				OFFSET 0.000000 -0.404085 0.000000 
				CHANNELS 3 Zrotation Xrotation Yrotation
				End Site
				{
					OFFSET 0.204105 -0.089430 -0.008415 
				}
			}
		}
	}
}
MOTION
Frames: 33
Frame Time: 0.02
-0.77829 -0.12029 -0.70897 -359.81921 -24.3042 -1.57902 40.74005 1.9782 -0.51355 -2.0861 -3.90907 -2.11994 -57.7505 -62.81362 45.76776 112.93702 116.05674 -46.48322 -6.98637 27.04761 -9.0216 12.31039 134.30118 -93.3178 -54.59652 4.14098 55.2455 -6.40725 -12.21127 -18.13684 -10.37169 -1.65643 -3.23066 47.08379 -0.72067 10.49339 -27.58934 -7.05036 1.38063 2.93685
-0.76962 -0.1189 -0.70891 -359.6689 -24.45939 -1.77378 40.74181 1.97161 -0.96325 -2.21299 -3.3817 -2.11994 -58.38664 -62.42001 44.85763 112.96429 118.43935 -49.22382 -7.33697 26.79901 -9.18269 11.98162 134.30134 -93.878 -54.72001 4.40821 55.21176 -6.18057 -17.12557 -14.48868 -11.81972 4.38857 -0.40465 46.72141 -0.53471 10.35385 -27.81807 -6.96618 1.36808 2.92718
-0.7605 -0.11764 -0.70876 -359.43527 -24.62681 -1.95022 40.78632 1.95901 -1.41175 -2.34701 -2.84854 -2.11994 -59.42404 -61.84691 43.40945 113.02223 122.37007 -53.68436 -7.89748 26.47918 -9.41462 11.62495 134.30122 -93.96681 -54.77172 4.68985 55.11579 -6.01535 -23.19965 -11.06782 -13.55652 11.9907 3.15406 46.36422 -0.38897 10.10298 -28.07735 -6.87986 1.36342 2.92098
-0.75151 -0.11633 -0.70861 -359.23766 -24.78657 -2.13058 40.81423 1.94872 -1.85147 -2.47324 -2.31853 -2.11994 -60.21749 -61.38539 42.28513 113.06427 125.35957 -57.10561 -8.32879 26.20782 -9.59984 11.31047 134.30103 -94.15962 -54.84984 4.93982 55.06231 -5.83075 -28.58026 -7.6343 -15.09425 18.63692 6.26585 45.9999 -0.22486 9.90996 -28.32595 -6.79441 1.35517 2.91315
-0.74282 -0.11496 -0.70862 -359.0454 -24.95456 -2.32899 40.8283 1.93933 -2.33102 -2.61874 -1.78504 -2.11994 -61.25602 -60.80304 40.84552 113.1127 129.29594 -61.55142 -8.89604 25.86605 -9.85052 10.87122 134.30208 -94.83484 -54.95935 5.29616 54.94466 -5.61467 -34.66538 -3.80621 -16.92079 26.3348 9.86059 45.65495 -0.06085 9.6921 -28.56053 -6.70939 1.3462 2.90517
-0.73339 -0.11376 -0.70827 -358.8233 -25.1086 -2.48571 40.88297 1.92721 -2.72731 -2.72553 -1.25857 -2.11994 -61.89219 -60.42368 39.91771 113.15608 131.67656 -64.32518 -9.23649 25.65469 -9.97978 10.68389 134.29998 -94.39423 -54.98607 5.43601 54.94339 -5.47589 -39.55933 -0.85771 -18.21324 32.21361 12.62384 45.27069 0.09346 9.4943 -28.83178 -6.62301 1.34124 2.89863
-0.72217 -0.11301 -0.70703 -358.53777 -25.22102 -2.5314 41.0288 1.90625 -2.89203 -2.7265 -0.74488 -2.11994 -61.22842 -60.69709 40.6561 113.17492 129.03757 -61.68652 -8.84957 25.82487 -9.76022 11.2162 134.29382 -90.89788 -54.78168 4.95299 55.33273 -5.54916 -40.85187 -0.29883 -17.96377 32.64505 12.89415 44.78315 0.23499 9.41818 -29.19672 -6.53304 1.34097 2.89299
-0.7102 -0.11242 -0.70543 -358.22614 -25.31935 -2.53611 41.2164 1.8835 -2.97338 -2.68759 -0.24008 -2.11994 -60.16146 -61.17247 41.90632 113.18838 124.8406 -57.37117 -8.2358 26.12876 -9.41497 11.99971 134.28386 -86.31046 -54.49922 4.2555 55.83473 -5.69516 -40.90475 -0.61977 -17.16702 31.19551 12.30339 44.25511 0.36813 9.35991 -29.59762 -6.44191 1.34519 2.88904
-0.69848 -0.11177 -0.70395 -357.92713 -25.42396 -2.55967 41.39152 1.86332 -3.09396 -2.66537 0.26353 -2.11994 -59.3425 -61.52258 42.83872 113.20658 121.59546 -54.08437 -7.76005 26.36876 -9.12397 12.65763 134.27236 -82.27467 -54.26461 3.66973 56.24819 -5.79832 -41.5504 -0.52433 -16.61673 30.6392 12.12028 43.74118 0.50143 9.26568 -29.98213 -6.35141 1.35053 2.88589
-0.68715 -0.1111 -0.70266 -357.62008 -25.52844 -2.58082 41.53946 1.83496 -3.20843 -2.65023 0.78968 -2.11994 -58.27353 -62.00488 44.10366 113.21627 117.40289 -49.76756 -7.14807 26.61796 -8.84678 13.36418 134.27376 -77.97719 -53.97526 3.02345 56.80791 -5.94462 -42.13555 -0.49128 -16.08133 29.9902 11.90135 43.24448 0.64564 9.27922 -30.36777 -6.26005 1.34345 2.87651
-0.67481 -0.11049 -0.70088 -357.32702 -25.63105 -2.59851 41.7549 1.82399 -3.31638 -2.60983 1.2664 -2.11994 -57.61235 -62.26584 44.81532 113.24187 114.75815 -47.13059 -6.75831 26.88254 -8.5111 14.02776 134.24851 -73.9845 -53.78247 2.45316 57.10193 -6.01802 -42.50827 -0.55328 -15.38711 29.04846 11.53357 42.70354 0.76958 9.08143 -30.75937 -6.17066 1.36239 2.88011
-0.65992 -0.11012 -0.69793 -357.05906 -25.7193 -2.60785 42.13246 1.85517 -3.42228 -2.51767 1.61091 -2.11994 -58.27884 -61.83546 43.78192 113.31384 117.07293 -49.92952 -7.0799 27.14164 -8.03476 14.52584 134.14034 -70.99249 -53.8722 2.13568 56.53432 -5.86701 -42.8476 -0.49553 -14.33439 27.91769 11.04546 42.03876 0.80517 8.22848 -31.15823 -6.08351 1.4595 2.92244
-0.64403 -0.10979 -0.69449 -356.81007 -25.8078 -2.61674 42.57829 1.90496 -3.52559 -2.40014 1.90535 -2.11994 -59.34955 -61.18211 42.19309 113.40175 120.93866 -54.40114 -7.62459 27.41496 -7.50509 14.96928 134.00688 -68.36756 -54.06139 1.9037 55.71187 -5.64035 -42.96961 -0.53007 -13.14847 26.5245 10.42104 41.33288 0.82651 7.17293 -31.56251 -5.99912 1.58143 2.97724
-0.62857 -0.1094 -0.69122 -356.56607 -25.90524 -2.63185 43.00264 1.95056 -3.63263 -2.28848 2.22156 -2.11994 -60.1642 -60.65173 40.92264 113.48136 123.88203 -57.8381 -8.03771 27.69191 -7.0063 15.42845 133.89238 -65.64734 -54.20916 1.63883 55.07558 -5.45203 -43.0135 -0.63459 -12.05844 25.13303 9.79976 40.6535 0.87816 6.25781 -31.96353 -5.91565 1.68688 3.02401
-0.6132 -0.1092 -0.68817 -356.26426 -25.96668 -2.62059 43.39071 1.9787 -3.72481 -2.19832 2.54245 -2.11994 -61.26582 -60.03641 39.39459 113.56483 127.67399 -62.35568 -8.56817 27.93023 -6.47627 15.93533 133.74833 -62.58579 -54.34368 1.34158 54.15699 -5.25134 -43.73621 -0.30999 -10.80371 24.1532 9.38727 39.94009 0.83211 5.14892 -32.36625 -5.8226 1.81364 3.08041
-0.59741 -0.10861 -0.68456 -356.08695 -26.09997 -2.66407 43.86681 2.0469 -3.84987 -2.05913 2.84077 -2.11994 -61.87681 -59.54309 38.26038 113.64463 130.10742 -65.06752 -8.91303 28.25148 -5.99884 16.32593 133.65725 -60.33782 -54.52359 1.13453 53.75086 -5.05528 -43.04132 -0.87383 -9.86311 22.30301 8.53111 39.28783 0.98223 4.38293 -32.76993 -5.75063 1.90288 3.1202
-0.5806 -0.10701 -0.67951 -356.25579 -26.46033 -2.86435 44.59585 2.22769 -4.05373 -1.78019 3.09768 -2.11994 -60.98475 -59.43416 38.38387 113.70587 128.24085 -62.16619 -8.667 28.79034 -5.69345 16.41264 133.74123 -60.24212 -54.86436 1.15964 54.93837 -4.90942 -38.2135 -3.99998 -9.86294 17.90402 6.37856 38.8207 1.71255 4.722 -33.14583 -5.73245 1.87336 3.10675
-0.56342 -0.105 -0.67392 -356.54829 -26.88755 -3.11878 45.40555 2.44709 -4.29306 -1.455 3.33187 -2.11994 -59.59624 -59.4554 38.91385 113.76366 124.99447 -57.44051 -8.23226 29.41278 -5.44146 16.38189 133.87536 -60.95811 -55.23712 1.2729 56.62824 -4.76722 -32.02243 -7.98807 -10.17906 12.68586 3.80762 38.41678 2.63439 5.39447 -33.52955 -5.73618 1.8068 3.07694
-0.54647 -0.10314 -0.66857 -356.77951 -27.26559 -3.34519 46.16117 2.6444 -4.52545 -1.15805 3.57105 -2.11994 -58.46929 -59.42145 39.2329 113.82606 122.49631 -53.69887 -7.90039 30.00174 -5.15594 16.40157 133.97151 -61.31203 -55.55573 1.34427 58.01123 -4.61021 -26.64089 -11.4907 -10.32612 7.99051 1.50162 37.9785 3.44554 5.84085 -33.92634 -5.73221 1.76326 3.05751
-0.52922 -0.10146 -0.6632 -357.03208 -27.7236 -3.58653 46.99438 2.86102 -4.72093 -0.8295 3.8317 -2.11994 -57.20415 -59.36563 39.64401 113.8764 119.53292 -49.35319 -7.50309 30.57309 -4.90531 16.43336 134.1302 -61.65259 -56.04285 1.42623 59.71676 -4.50491 -20.45264 -15.39269 -10.5735 2.65238 -1.12388 37.55758 4.3557 6.5881 -34.24586 -5.71841 1.69487 3.02623
-0.51253 -0.0993 -0.65776 -357.27024 -28.03015 -3.80892 47.68219 3.04701 -4.99926 -0.55636 4.04203 -2.11994 -56.1041 -59.38597 39.96645 113.95055 117.19946 -45.81979 -7.19545 31.19971 -4.59827 16.41097 134.17175 -62.20498 -56.18799 1.50595 60.87356 -4.29527 -15.61918 -18.66647 -10.6908 -1.54168 -3.18336 37.12229 5.10574 6.79918 -34.73726 -5.73074 1.66861 3.01538
-0.49736 -0.09579 -0.6522 -357.43102 -27.90826 -3.97165 47.96531 3.13291 -5.51876 -0.44603 4.12643 -2.11994 -55.5767 -59.61375 39.95359 114.09314 116.85673 -44.88651 -7.17054 31.96555 -4.09791 16.28137 133.87045 -63.18014 -55.35761 1.55823 60.38845 -3.78401 -14.9036 -19.98983 -10.3564 -2.33766 -3.55786 36.57876 5.36266 5.37522 -35.62076 -5.80529 1.77219 3.06669
-0.48281 -0.09182 -0.64659 -357.57473 -27.63029 -4.11201 48.09548 3.18761 -6.11602 -0.39367 4.1599 -2.11994 -55.23143 -59.90997 39.8398 114.25906 117.19869 -44.83699 -7.24261 32.78144 -3.54357 16.09838 133.45136 -64.33253 -54.18615 1.60479 59.33544 -3.17043 -15.59114 -20.65105 -9.88382 -1.95931 -3.35099 36.02881 5.45244 3.41557 -36.69036 -5.90603 1.91862 3.1388
-0.46808 -0.08812 -0.64103 -357.73046 -27.42 -4.25916 48.28498 3.26054 -6.66453 -0.31567 4.2119 -2.11994 -54.80388 -60.15618 39.76743 114.41346 117.28295 -44.43959 -7.27737 33.57132 -3.03054 15.93183 133.09047 -65.37739 -53.18528 1.65328 58.54652 -2.61227 -15.60982 -21.61862 -9.48502 -2.14272 -3.42255 35.51664 5.62175 1.74903 -37.72962 -5.99797 2.04223 3.20014
-0.4529 -0.08415 -0.63533 -357.87086 -27.22659 -4.42382 48.52196 3.31803 -7.27293 -0.23231 4.28221 -2.11994 -54.35728 -60.48413 39.72245 114.57301 117.11637 -43.77361 -7.28018 34.38317 -2.44937 15.79658 132.71002 -66.5623 -52.11852 1.70752 57.75084 -2.01625 -15.71465 -22.5954 -9.05039 -2.23774 -3.44943 34.85894 5.78351 -0.11886 -38.54684 -6.07829 2.17817 3.26627
-0.43881 -0.08063 -0.62991 -358.03959 -26.95906 -4.54429 48.62062 3.39937 -7.77203 -0.17542 4.30304 -2.11994 -53.9999 -60.6595 39.59779 114.72566 117.62499 -43.87421 -7.37118 35.15347 -1.99552 15.58197 132.34366 -67.49005 -51.10917 1.74752 56.82635 -1.4751 -15.98833 -23.38199 -8.65399 -2.22556 -3.42502 34.50266 5.91775 -1.69492 -39.8623 -6.18784 2.29975 3.32785
-0.42749 -0.07849 -0.62524 -358.27273 -26.53428 -4.56208 48.39231 3.55716 -7.97203 -0.16962 4.19564 -2.11994 -53.84801 -60.3699 39.21907 114.86909 120.08207 -46.11735 -7.71671 35.85215 -1.91524 15.18781 132.02729 -67.63285 -50.32715 1.74667 55.69664 -1.10838 -16.41736 -23.82248 -8.39127 -2.21414 -3.40539 34.97575 6.02497 -2.36902 -42.5764 -6.37964 2.36524 3.36939
-0.41727 -0.07681 -0.62087 -358.53796 -26.03881 -4.53308 48.02682 3.73915 -8.05508 -0.19013 4.04081 -2.11994 -53.78183 -59.92876 38.7717 115.00223 123.16159 -49.07213 -8.14307 36.49612 -1.96278 14.71125 131.73175 -67.51217 -49.61682 1.73173 54.45298 -0.80135 -16.96978 -24.08697 -8.17137 -2.12918 -3.35116 35.75345 6.10783 -2.72599 -45.77028 -6.59839 2.41589 3.40608
-0.40661 -0.0749 -0.61637 -358.79932 -25.56861 -4.51648 47.71167 3.90809 -8.17728 -0.20402 3.91084 -2.11994 -53.67595 -59.57402 38.39351 115.12951 125.78941 -51.54279 -8.50933 37.1289 -1.94609 14.25565 131.43863 -67.52903 -48.88366 1.72476 53.25047 -0.46764 -17.45004 -24.41638 -7.93392 -2.06785 -3.30803 36.3937 6.19548 -3.20699 -48.70274 -6.79945 2.47766 3.44676
-0.39574 -0.07304 -0.61181 -359.01384 -25.11959 -4.53757 47.44016 4.08515 -8.36146 -0.19752 3.76625 -2.11994 -53.57755 -59.14778 37.85556 115.30073 129.12532 -54.69359 -8.97348 37.91733 -1.95456 13.86782 131.09314 -67.47873 -48.0992 1.71122 52.07034 -0.12619 -18.04199 -24.78646 -7.68349 -2.00847 -3.26488 37.0275 6.30369 -3.79161 -51.83481 -7.02431 2.52325 3.481
-0.38555 -0.07121 -0.60746 -359.33512 -24.61463 -4.46802 47.04936 4.25078 -8.38757 -0.2388 3.6401 -2.11994 -53.48378 -58.83353 37.63047 115.37936 131.16018 -56.62062 -9.25675 38.36587 -1.94032 13.31986 130.86085 -67.50171 -47.44085 1.70782 50.82766 0.18074 -18.41787 -25.03901 -7.47242 -1.94145 -3.22048 37.74978 6.36574 -4.07775 -54.65014 -7.20581 2.59744 3.52676
-0.37689 -0.06931 -0.60361 -359.9317 -23.94784 -4.17095 46.34401 4.3849 -8.00701 -0.40717 3.58881 -2.11994 -53.36281 -58.86533 38.32866 115.18996 129.13941 -54.67905 -8.97536 37.90446 -1.84272 12.35213 130.95427 -67.80423 -47.13212 1.73817 49.40946 0.43131 -18.11441 -25.00776 -7.35618 -1.88699 -3.18853 38.61865 6.30398 -3.61944 -56.57759 -7.25924 2.76272 3.60949
-0.36889 -0.06743 -0.59997 -360.6369 -23.23239 -3.78231 45.52739 4.50579 -7.47102 -0.62227 3.55555 -2.11994 -53.24603 -59.01466 39.33707 114.91017 125.83484 -51.52775 -8.51598 37.09873 -1.71536 11.22669 131.15643 -68.18678 -46.94474 1.77885 47.94067 0.64432 -17.59089 -24.86795 -7.27936 -1.83045 -3.15808 39.56977 6.19764 -2.86948 -58.14825 -7.26826 2.95541 3.70309
